<?xml version="1.0" encoding="UTF-8" standalone="no"?>
<!-- Created with Inkscape (http://www.inkscape.org/) -->

<svg
   width="500mm"
   height="260mm"
   viewBox="0 0 500 260"
   version="1.1"
   id="svg1"
   inkscape:version="1.3.2 (091e20ef0f, 2023-11-25)"
   sodipodi:docname="blhub-light.svg"
   inkscape:export-filename="blhub-logo-light.png"
   inkscape:export-xdpi="122.00677"
   inkscape:export-ydpi="122.00677"
   xmlns:inkscape="http://www.inkscape.org/namespaces/inkscape"
   xmlns:sodipodi="http://sodipodi.sourceforge.net/DTD/sodipodi-0.dtd"
   xmlns="http://www.w3.org/2000/svg"
   xmlns:svg="http://www.w3.org/2000/svg"
   xmlns:rdf="http://www.w3.org/1999/02/22-rdf-syntax-ns#"
   xmlns:cc="http://creativecommons.org/ns#"
   xmlns:dc="http://purl.org/dc/elements/1.1/">
  <title
     id="title1">BLHub Logo</title>
  <sodipodi:namedview
     id="namedview1"
     pagecolor="#ffffff"
     bordercolor="#eeeeee"
     borderopacity="1"
     inkscape:showpageshadow="false"
     inkscape:pageopacity="0"
     inkscape:pagecheckerboard="true"
     inkscape:deskcolor="#d1d1d1"
     inkscape:document-units="mm"
     inkscape:zoom="0.26058963"
     inkscape:cx="253.27178"
     inkscape:cy="873.02016"
     inkscape:window-width="2560"
     inkscape:window-height="1371"
     inkscape:window-x="0"
     inkscape:window-y="0"
     inkscape:window-maximized="1"
     inkscape:current-layer="layer1" />
  <defs
     id="defs1" />
  <g
     inkscape:label="Layer 1"
     inkscape:groupmode="layer"
     id="layer1"
     transform="translate(-0.99017638,-2.4037156)">
    <g
       id="g2"
       transform="matrix(0.62055854,0,0,0.62359463,-382.15941,-190.70396)">
      <path
         style="fill:#5ea4bd"
         d="m 834.155,705.9874 c -5.93867,-4.9695 -9.42756,-11.1741 -15.52191,-15.95339 -9.69937,-7.60641 -4.65636,-2.80149 -49.97809,-15.65461 -43.22111,-12.25739 -7.38403,1.04987 -58,22.54956 -11.44423,4.86106 -35.11998,8.29649 -48.94826,-2.84558 -7.36672,-5.93569 -16.85136,-2.36581 -22.12378,-5.71253 -1.23525,-0.78409 29.98814,-32.27761 57.17011,-39.78292 5.2968,-1.46251 10.38705,-5.22878 10.3951,-7.69132 0.0337,-10.61761 -42.30679,-20.80208 -55.62247,-141.90921 -2.12533,-62.72206 28.70319,-108.92822 -21.37887,-157.7935 -8.78318,-8.56978 -13.45611,-30.57555 -12.62515,-31.40651 0.90175,-0.90175 2.796,3.49831 6.60641,7.50504 15.84422,16.66058 31.87556,1.2728 56.64531,33.82767 26.50162,-8.55393 37.79824,17.11211 77.8816,13.2164 l -3.42791,3.55661 c -49.0151,26.61254 -89.17031,26.10782 -69.36244,99.64414 22.86557,69.9832 113.94917,108.57815 170.79035,88.43741 46.6694,-16.91228 65.24318,-3.3516 141.39201,31.38798 7.00969,3.19787 -8.25888,52.97674 -47.39201,77.04628 -37.4063,25.50573 -92.54761,20.01539 -86.88834,25.64809 8.54151,8.50141 6.93888,15.9454 9.42614,29.00453 0.66073,3.4691 1.1179,8.56094 0.0956,7.36703 -5.27323,-6.15842 -32.47147,-14.86645 -39.1334,-20.44117 z"
         id="path3"
         sodipodi:nodetypes="ssssssssssssscsssssssss" />
    </g>
    <path
       style="fill:#4d4d4d;stroke-width:0.468327"
       d="m 363.16287,140.07541 c -0.68371,-0.136 -2.78152,-0.55583 -4.66175,-0.93317 -6.98196,-1.40117 -13.48207,-6.65009 -16.51479,-13.33584 -4.42515,-9.75542 -5.23509,-18.71623 -5.23777,-57.951313 V 36.959305 h 9.9867 9.98672 l -0.40883,27.131823 c -0.5891,39.098502 0.29881,48.472992 5.09908,53.835542 3.12923,3.49586 7.0666,4.55896 15.65843,4.22791 10.17262,-0.39197 13.83696,-2.99118 16.44052,-11.66153 1.19259,-3.97169 1.27959,-6.20945 1.51113,-38.874005 l 0.24565,-34.65974 h 9.58803 9.58793 l -0.0117,33.71875 c -0.007,19.039077 -0.28267,35.630495 -0.6334,38.110015 -2.6318,18.60735 -10.2033,28.27492 -24.10417,30.77686 -4.36482,0.7856 -23.31041,1.15016 -26.52907,0.51048 z M 89.364351,88.443821 V 36.959305 l 22.842449,0.01178 c 24.7899,0.01178 28.51932,0.38356 34.75947,3.464892 4.19183,2.069894 9.03781,7.440382 10.87554,12.052609 0.91223,2.289416 3.55903,15.618047 -0.58443,24.110522 -2.12711,4.35964 -5.32508,7.739566 -8.3199,8.793238 -0.97222,0.34208 -1.76666,0.806058 -1.76542,1.03107 0,0.225084 1.25836,0.930455 2.79351,1.567594 3.64576,1.513219 7.95803,6.394651 9.6714,10.94791 2.75868,7.33135 2.19672,19.59494 -1.23188,26.88358 -1.91243,4.06556 -5.95605,8.49793 -9.33878,10.23673 -6.36004,3.26915 -7.41933,3.38108 -34.37323,3.63311 l -25.328729,0.23685 z M 136.67387,120.9054 c 3.61239,-2.04906 5.21544,-5.78334 5.20172,-12.11733 -0.009,-4.0777 -0.3001,-5.60054 -1.55389,-8.12263 -2.92028,-5.874412 -5.13796,-6.583506 -20.65614,-6.604554 l -11.03273,-0.01414 v 14.114824 14.11484 h 12.81278 c 12.02116,0 12.96205,-0.0846 15.22826,-1.37018 z m -1.32612,-44.581407 c 3.63505,-1.874414 5.1402,-4.852584 5.1402,-10.170654 0,-4.608362 -1.39644,-8.034578 -4.08382,-10.020119 -1.61651,-1.194261 -2.76621,-1.310079 -14.76216,-1.487176 l -13.00914,-0.192087 v 11.640719 11.640742 h 11.98874 c 11.20742,0 12.16724,-0.09192 14.72618,-1.411472 z m 52.34492,62.847447 c -6.11492,-1.21521 -10.24816,-4.44121 -12.80628,-9.99532 -1.27537,-2.76897 -1.30354,-3.67708 -1.47539,-47.519869 l -0.1752,-44.696946 h 9.65395 9.65398 l 0.0347,39.364688 c 0.0373,42.019017 0.10554,43.003467 3.07275,44.514477 1.15046,0.58585 6.59692,0.79366 20.97773,0.80054 l 19.42383,0.009 v 9.09626 9.0962 l -22.84242,-0.0688 c -12.56335,-0.0377 -24.04652,-0.30804 -25.51812,-0.60048 z m 60.7918,-50.771434 V 36.959305 h 9.63423 9.63423 V 58.915697 80.87209 h 17.40375 17.40383 V 58.915697 36.959305 h 9.94494 9.94507 v 51.440701 51.440674 h -9.94507 -9.94494 V 119.45262 99.064523 h -17.40383 -17.40375 v 20.388097 20.38806 h -9.63423 -9.63423 z m 180.87487,0 V 36.959305 h 22.6324 c 24.72659,0 29.29948,0.446396 35.13244,3.429563 10.94893,5.599695 15.68038,20.25019 11.03017,34.153879 -1.57497,4.709238 -5.60191,9.633707 -8.84593,10.817621 -2.60984,0.952468 -2.71278,1.513267 -0.3649,1.987191 2.92183,0.589813 8.36327,6.125636 10.29798,10.476649 2.85191,6.413842 1.85379,22.935262 -0.41305,27.611362 -2.39019,4.93069 -5.41611,8.23373 -9.59642,10.47551 -6.53084,3.5022 -10.50482,3.9296 -36.53789,3.9296 h -23.3348 z m 47.25523,32.612444 c 6.38599,-3.2881 7.59043,-17.05231 2.03519,-23.258312 -2.87555,-3.212398 -5.94364,-3.783521 -19.1631,-3.567181 l -10.54807,0.17276 -0.16723,13.957993 -0.16723,13.95799 h 12.77873 c 11.58055,0 13.0087,-0.11855 15.23185,-1.26313 z m -0.16254,-45.051584 c 3.07016,-2.210129 4.15081,-4.757907 4.16978,-9.830931 0.0188,-4.896492 -1.15132,-7.658371 -4.22283,-9.971614 -1.62934,-1.227116 -2.67052,-1.333766 -14.76209,-1.512277 l -13.00914,-0.192087 v 11.686136 11.68616 l 12.89739,-0.202221 c 12.34611,-0.193501 12.98418,-0.264703 14.92689,-1.663189 z"
       id="path9"
       sodipodi:nodetypes="cssccccssssscccsssccccssssscsssssccsssscccssssssscccsscsscccssccccccccccccccccccccccccccccccccccsssssssssccssscccsssssscccss" />
  </g>
  <metadata
     id="metadata1">
    <rdf:RDF>
      <cc:Work
         rdf:about="">
        <dc:title>BLHub Logo</dc:title>
        <cc:license
           rdf:resource="http://creativecommons.org/licenses/by-nc-sa/4.0/" />
      </cc:Work>
      <cc:License
         rdf:about="http://creativecommons.org/licenses/by-nc-sa/4.0/">
        <cc:permits
           rdf:resource="http://creativecommons.org/ns#Reproduction" />
        <cc:permits
           rdf:resource="http://creativecommons.org/ns#Distribution" />
        <cc:requires
           rdf:resource="http://creativecommons.org/ns#Notice" />
        <cc:requires
           rdf:resource="http://creativecommons.org/ns#Attribution" />
        <cc:prohibits
           rdf:resource="http://creativecommons.org/ns#CommercialUse" />
        <cc:permits
           rdf:resource="http://creativecommons.org/ns#DerivativeWorks" />
        <cc:requires
           rdf:resource="http://creativecommons.org/ns#ShareAlike" />
      </cc:License>
    </rdf:RDF>
  </metadata>
</svg>
